<?xml version="1.0" encoding="utf-8"?>
<!-- Generator: Adobe Illustrator 27.5.0, SVG Export Plug-In . SVG Version: 6.00 Build 0)  -->
<svg version="1.1" id="Layer_1" xmlns="http://www.w3.org/2000/svg" xmlns:xlink="http://www.w3.org/1999/xlink" x="0px" y="0px"
	 viewBox="0 0 3195.696 2000" style="enable-background:new 0 0 3195.696 2000;" xml:space="preserve">
<rect style="fill:#FFFFFF;" width="3195.696" height="2000"/>
<g style=" width:460px; height:600px;">
	<path style="fill:#EBF3FA;" d="M368.897,1712.18c0,0-337.217-358.499-107.797-776.078
		c176.988-322.146,605.148-264.746,824.84-128.484c93.57,58.035,294.613-48.398,549.574-371.591
		c295.984-375.194,1441.912-146.273,1244.008,570.592c-95.771,346.912,291.471,359.522,94.156,706.295L368.897,1712.18z"/>
	<g>
		<g>
			<g>
				<path style="fill:#4F75BA;" d="M2769.128,1709.311h-855.514c-85.635,0-155.057-69.421-155.057-155.057V813.57
					c0-78.639,15.422-154.974,45.837-226.885c29.359-69.412,71.369-131.731,124.864-185.226
					c53.495-53.495,115.814-95.505,185.226-124.863c61.965-26.209,47.148-42.092,114.327-45.761
					c10.782-0.589,101.683-0.077,112.56-0.077c78.639,0,154.975,15.422,226.886,45.838
					c69.412,29.359,131.731,71.368,185.226,124.863c53.495,53.495,95.506,115.814,124.864,185.226
					c30.416,71.911,45.838,148.246,45.838,226.885v740.684C2924.184,1639.889,2854.763,1709.311,2769.128,1709.311z
					 M1940.686,844.458h801.369V813.57c0-220.938-179.746-400.684-400.684-400.684s-400.684,179.746-400.684,400.684V844.458z"/>
			</g>
			<g>
				<path style="fill:#739AF0;" d="M2665.921,1709.311h-855.514c-85.635,0-155.057-69.421-155.057-155.057V813.57
					c0-78.639,15.422-154.974,45.837-226.885c29.359-69.412,71.369-131.731,124.864-185.226
					c53.495-53.495,115.814-95.505,185.226-124.863c71.911-30.416,148.247-45.838,226.886-45.838
					c78.639,0,154.975,15.422,226.886,45.838c69.412,29.359,131.731,71.368,185.226,124.863
					c53.495,53.495,95.506,115.814,124.864,185.226c30.416,71.911,45.838,148.246,45.838,226.885v740.684
					C2820.978,1639.889,2751.556,1709.311,2665.921,1709.311z M1837.479,844.458h801.369V813.57
					c0-220.938-179.746-400.684-400.684-400.684s-400.685,179.746-400.685,400.684V844.458z"/>
			</g>
			<path style="fill:#4F75BA;" d="M2310.278,1134.731c0-17.995-6.606-34.438-17.507-47.071
				c-10.001-14.843-30.691-25.043-54.607-25.043s-44.606,10.2-54.607,25.043c-10.9,12.634-17.507,29.076-17.507,47.071
				c0,32.327,21.272,59.684,50.581,68.842v109.217c0,8.809,9.641,15.951,21.533,15.951s21.533-7.142,21.533-15.951v-109.217
				C2289.006,1194.415,2310.278,1167.058,2310.278,1134.731z"/>
		</g>
		<g>
			<path style="fill:#FFB27D;" d="M1279.668,1042.473c-1.366,9.258-11.939,19.977-23.221,28.015
				c-12.142,8.651-17.006,17.534-21.311,21.97c-1.593,1.822-2.573,2.824-2.573,2.824l-12.959-15.076c0,0,0.212-0.138,0.596-0.569
				c2.899-3.158,10.254-10.952,15.151-19.925c10.738-19.672,25.753-22.575,25.753-22.575S1275.457,1039.263,1279.668,1042.473z"/>
			<g>
				<g>
					<path style="fill:#EA8E50;" d="M610.156,1231.591l8.759,7.113c0,0,23.961-8.592,29.368,19.88c0,0,1.44,12.134-6.247,12.157
						c-7.686,0.022-4.514-1.327-15.4-1.008c-10.885,0.319-19.906-5.419-21.5-14.252l-5.207-7.484L610.156,1231.591z"/>
					<path style="fill:#992525;" d="M609.164,1246.856c6.988-7.297,6.425-12.69,6.425-12.69s-80.918-66.249-89.125-71.646
						c-5.592-3.678-61.976-57.688-93.041-88.716c-14.944-14.926-30.933-9.778-50.515-4.159l-16.126,4.627
						c-19.472,5.587-24.536,32.821-8.559,46.054c44.997,37.271,119.851,79.193,133.857,88.003
						c34.769,21.871,102.827,47.861,102.827,47.861S603.164,1253.122,609.164,1246.856z"/>
				</g>
				<path style="fill:#233862;" d="M701.507,1653.881c0,0,19.638,14.713,49.729,6.938c0,0,24.26-5.528,29.582,6.571
					c0,0-37.209,18.903-46.623,24.072c-7.097,3.897-14.502,10.047-19.737,14.8c-4.144,3.763-10.597,3.253-14.129-1.09
					c-1.637-2.012-3.51-4.409-5.562-7.191c-5.737-7.774-19.104-32.887-19.104-32.887L701.507,1653.881z"/>
				<path style="fill:#2B478B;" d="M713.035,1646.406c0,0-11.958,27.572-39.559,22.503c0,0-56.324-46.515-94.959-94.835
					c-12.548-15.695-23.232-31.578-29.51-46.114c-25.62-59.317-94.769-147.787-138.734-192.626l109.998-39.793
					c0,0,35.233,70.875,82.112,157.932C636.166,1516.199,675.988,1587.328,713.035,1646.406z"/>
				<path style="fill:#233862;" d="M602.383,1453.473l-23.866,120.601c-12.548-15.695-23.232-31.578-29.51-46.114
					c-25.62-59.317-94.769-147.787-138.734-192.626l109.998-39.793C520.271,1295.542,555.504,1366.416,602.383,1453.473z"/>
				<path style="fill:#233862;" d="M512.47,1669.882c0,0-1.199,22.001,25.472,24.936c0,0,15.241,0.08,15.284,14.083l-77.518,0.245
					c0,0-2.25-5.648-2.796-17.746c-0.42-9.29,9.004-33.577,9.004-33.577L512.47,1669.882z"/>
				<path style="fill:#2B478B;" d="M484.192,1295.542c0,0,49.003,53.845,80.109,150.853c16.925,52.78-31.02,185.48-40.367,231.586
					c0,0-32.163,2.729-54.154-5.773c0,0-1.672-95.229,11.19-168.625c7.198-41.077-64.52-87.851-95.857-162.072
					c-21.32-50.494,4.615-49.637,36.489-50.85L484.192,1295.542z"/>
				<path style="fill:#FFB07B;" d="M427.624,1055.314c-27.264,15.396-83.079,1.197-83.079,1.197s22.667-25.913,12.367-67.647
					l21.407,10.871l22.993,11.678c0,0,1.487,7.371,2.521,20.609c0.262,3.409,0.499,7.217,0.661,11.379
					C418.494,1047.643,427.624,1055.314,427.624,1055.314z"/>
				<path style="fill:#BC3F3F;" d="M527.597,1292.76c0,4.792-5.521,7.086-6.693,7.319c-10.997,2.01-41.701,13.954-69.36,16.692
					c-23.29,2.44-44.912,0.124-68.668-4.646c-3.146-0.633-10.531-2.622-11.056-5.636c-0.655-3.292-91.63-185.46-20.908-263.713
					c1.66-1.835,15.621,1.471,28.388,4.501c11.791,2.797,22.605,1.238,32.262-2.636l11.973,6.3
					c14.703,8.193,42.524,37.302,45.778,60.14c1.653,11.616,8.295,20.217,10.218,30.435c0.713,3.779,1.441,7.472,2.185,11.069
					c1.449,7.057,2.942,13.772,4.478,20.159c4.159,17.274,8.55,32.146,12.862,44.992c4.588,13.64,9.088,24.987,13.109,34.476
					c5.214,12.308,9.619,21.506,12.372,28.548C526.483,1285.718,527.597,1289.606,527.597,1292.76z"/>
				<path style="fill:#992525;" d="M524.538,1280.758c-128.422-60.505-172.897-176.684-172.897-176.684
					s104.339,38.489,130.076,48.509c1.449,7.057,2.942,13.772,4.478,20.159c4.159,17.274,8.55,32.146,12.862,44.992
					c4.588,13.64,9.088,24.987,13.109,34.476C517.379,1264.517,521.785,1273.716,524.538,1280.758z"/>
				<g>
					<g>
						<g>
							<path style="fill:#F99746;" d="M687.45,1250.911h-70.899c-68.006,0-123.333-55.327-123.333-123.333V896.578
								c0-68.006,55.327-123.333,123.333-123.333h70.899c68.006,0,123.333,55.327,123.333,123.333v230.999
								C810.783,1195.583,755.456,1250.911,687.45,1250.911z M616.551,846.095c-27.837,0-50.483,22.646-50.483,50.484v230.999
								c0,27.837,22.647,50.484,50.483,50.484h70.899c27.837,0,50.484-22.646,50.484-50.484V896.578
								c0-27.837-22.647-50.484-50.484-50.484H616.551z"/>
						</g>
						<path style="fill:#F99746;" d="M1430.972,1054.626H780.817V969.53h650.155c23.499,0,42.548,19.049,42.548,42.548l0,0
							C1473.52,1035.577,1454.471,1054.626,1430.972,1054.626z"/>
						<path style="fill:#F99746;" d="M1383.539,1238.399L1383.539,1238.399c-18.859,0-34.147-15.288-34.147-34.146v-166.762h68.293
							v166.762C1417.686,1223.111,1402.398,1238.399,1383.539,1238.399z"/>
					</g>
					<path style="fill:#FFB07B;" d="M599.674,1245.695l11.097,4.069c0,0,22.223-15.714,36.059,9.843c0,0,5.005,11.163-2.918,13.587
						c-7.922,2.425-5.04,0.142-16.176,3.85c-11.135,3.709-22.104,1.038-26.31-6.917l-7.543-5.534L599.674,1245.695z"/>
					<path style="fill:#BC3F3F;" d="M608.808,1261.389c4.103-10.705,5.976-15.554,5.976-15.554s-83.854-68.349-92.398-74.211
						c-5.821-3.995-63.785-47.322-92.044-81.088c-14.019-16.749-36.121-24.405-57.496-19.922l-17.603,3.691
						c-21.255,4.457-28.161,31.361-11.673,45.495c46.436,39.809,124.759,85.983,139.362,95.587
						c36.252,23.842,116.437,57.25,116.437,57.25S605.585,1269.797,608.808,1261.389z"/>
				</g>
				<path style="fill:#EA8E50;" d="M403.833,1032.021c-26.811,1.505-44.246-20.63-44.246-20.63s12.123-6.715,18.732-11.657
					l22.993,11.678C401.312,1011.413,402.799,1018.784,403.833,1032.021z"/>
				<path style="fill:#FFB07B;" d="M415.255,1004.496c0,0-40.622,29.152-58.387,3.575c-17.765-25.578-34.973-39.04-9.787-58.735
					c25.186-19.694,37.058-13.472,45.064-6.377C400.151,950.054,425.366,996.253,415.255,1004.496z"/>
				<path style="fill:#233862;" d="M396.436,919.859c-1.457-9.831-4.734-16.75-4.734-16.75s-2.549,10.56-21.848,9.103
					c-19.299-1.456-49.887,1.898-60.082,23.89c-0.648,1.399-1.227,2.84-1.741,4.314c-1.845-4.876-2.29-12.182-2.29-12.182
					c-3.667,9.467,0,21.31,0,21.31h0.002c-0.056,0.345-0.101,0.691-0.15,1.037c-4.26,3.601-7.837,14.795-7.837,14.795
					c1.286-3.121,4.421-5.159,7.215-6.414c-0.086,17.113,6.854,33.842,19.034,38.822c17.811,7.283,17.669,1.727,35.583,13.609
					c0,0,4.806-5.962,1.528-9.967c-3.277-4.006-15.658-9.832-8.739-15.658c6.919-5.826,9.467,0.728,12.017-3.277
					c2.549-4.005-10.196-15.658,6.189-26.582C386.968,944.984,397.893,929.69,396.436,919.859z"/>
			</g>
			<g>
				<path style="fill:#BC3F3F;" d="M1107.978,1686.125l-14.967,5.573c0,0-65.009-90.164-73.013-169.493
					c-1.43-14.163-0.952-27.885,2.139-40.557c0,0-0.635-3.629-1.747-10.044c-0.513-2.994-1.149-6.599-1.87-10.729
					c-2.113-12.109-5.022-28.678-8.346-47.545c-7.649-43.417-17.559-98.917-25.257-139.718l4.033-1.295l43.635-14.077l9.018-28.642
					l32.492-8.554c0,0,7.258,14.199,13.747,81.271c1.197,8.798,2.285,18.5,3.104,29.022c2.529,32.113,2.713,71.948-3.092,117.491
					c-1.49,11.658-3.372,23.693-5.707,36.059c-1.71,9.067-1.967,21.421-1.246,35.608
					C1084.174,1585.342,1107.978,1686.125,1107.978,1686.125z"/>
				<path style="fill:#992525;" d="M1090.944,1331.336l-70.555,140.268c-0.513-2.994-1.149-6.599-1.87-10.729
					c-2.113-12.109-5.022-28.678-8.346-47.545c-7.649-43.417-17.559-98.917-25.257-139.718l4.033-1.295l43.635-14.077l9.018-28.642
					l32.492-8.554c0,0,7.258,14.199,13.747,81.271C1089.037,1311.113,1090.125,1320.815,1090.944,1331.336z"/>
				<path style="fill:#BC3F3F;" d="M1059.905,1239.043l-1.633-14.006c-27.364,7.268-100.477-20.309-100.477-20.309
					s-26.51,23.302-23.029,79.158c1.698,27.264,4.802,143.115,8.043,177.396c1.172,12.425,2.197,21.267,2.616,24.798
					c0.009,0.017,0.009,0.026,0.009,0.035c0.128,1.077-0.248,2.095-0.795,3.035c-4.772,8.099-8.722,16.53-11.964,25.158
					c-31.81,84.769,4.9,189.162,4.9,189.162l9.526-3.839c0,0,20.891-116.177,37.865-167.502c2.882-8.705,5.644-15.546,8.175-19.634
					c7.38-11.911,14.229-31.374,20.446-54.522c11.749-43.765,21.207-100.698,27.501-144.643
					C1041.956,1313.37,1059.905,1239.043,1059.905,1239.043z"/>
				<path style="fill:#2C3A64;" d="M1226.852,1065.239c8.264,3.294,16.355,9.78,24.359,17.864c0,0-46.669,81.394-73.533,93.232
					c-14.746,6.498-60.885-42.799-70.422-70.421c-2.331-6.753,6.275-29.338,3.457-34.088c-3.729-6.254-5.532-12.387-6.276-17.66
					c-0.176-0.798-0.352-1.595-0.29-2.478c-0.886-8.393,0.843-14.115,0.843-14.115c1.067-2.746,4.089-3.926,8.574-3.855l1.586-0.003
					c24.168,14.222,55.924,84.07,61.162,85.706C1189.972,1102.119,1226.852,1065.239,1226.852,1065.239z"/>
				<path style="fill:#FFB27D;" d="M1112.181,1069.154c-8.59,3.984-18.965,6.696-31.513,7.381
					c-47.046,2.578-57.726-38.663-59.668-66.034c6.782-2.456,12.72-2.224,16.142-2.041c3.336,0.184,6.818,0.526,9.69,0.88
					c5.755-3.006,16.093-17.608,22.068-42.035l2.028,0.941l33.946,15.959c0,0-3.605,11.047-6.269,21.616
					c-2.077,8.273-3.568,16.264-2.321,18.5c2.676,1.088,4.276,1.772,4.276,1.772s0,0.012,0.013,0.036
					C1100.915,1026.997,1108.296,1045.803,1112.181,1069.154z"/>
				<path style="fill:#2B478B;" d="M1123.949,1100.021c-0.355,0.941-0.745,1.858-1.173,2.799
					c-11.915,25.661-33.971,131.958-33.971,131.958c3.141,19.111-143.627-3.752-144.006-21.152
					c-5.169-18.452,18.341-48.096,31.599-62.967c1.661-1.869,3.152-3.874,4.447-5.988c3.275-5.304,5.353-11.291,6.012-17.547
					c2.604-24.667-7.088-81.554-4.474-92.545c1.022-4.297,20.457,20.291,22.779,17.823c2.554-2.688,4.155-5.438,4.338-8.541
					c0.134-2.346,0.06-4.754-0.183-7.161c-0.11-1.137-0.257-2.273-0.429-3.41c-1.832-11.939-24.662-6.841-24.662-6.841
					c8.367-20.143,52.923-18.535,52.914-17.989c-0.009,0.546-0.025,1.247-0.037,3.287c-0.073,8.199,0,29.253,2.628,33.237
					c3.287,4.961,63.419,26.7,66.595,19.966c3.128-6.622-5.437-37.648-5.755-38.821c-0.013-0.025-0.013-0.036-0.013-0.036
					c6.583,2.672,14.59,7.622,14.59,7.622C1122.7,1048.848,1133.333,1075.129,1123.949,1100.021z"/>
				<path style="fill:#BC3F3F;" d="M1083.444,878.291c-0.074-2.04-1.652-24.018-35.129-25.166c0,0,16.462,1.963,19.306,9.2
					c0,0-11.209-8.943-20.338-6.066c-9.127,2.876-14.489,18.869-14.543,24.129c-0.053,5.26,5.018,22.217,10.812,23.659
					c2.194,0.546,4.721,0.4,7.016,0.008c-1.542,2.407-3.052,5.062-4.497,8.027c-13.358,27.421,0.419,54.22,11.727,51.259
					c7.253-1.899,9.305,10.478,9.305,10.478l70.464-57.046C1137.567,916.772,1111.686,863.219,1083.444,878.291z"/>
				<path style="fill:#ED985F;" d="M1104.875,984.212c0,0-3.609,11.036-6.268,21.616c-19.843-5.536-25.867-26.393-27.681-37.574
					L1104.875,984.212z"/>
				<path style="fill:#FFB27D;" d="M1109.053,995.897c0,0-47.472-10.987-40.175-40.444c7.297-29.457,6.084-50.714,36.702-44.945
					c30.618,5.769,33.7,18.463,33.656,28.888C1139.192,949.82,1121.589,997.995,1109.053,995.897z"/>
				<path style="fill:#BC3F3F;" d="M1141.906,922.671c-5.104-10.677-11.11-10.107-14.867-8.214
					c-22.306-20.638-44.184-3.778-44.184-3.778c-8.422,20.343-26.672,28.656-26.672,28.656s7.293,7.467,28.429,7.303
					c6.457-0.05,12.948-3.015,18.854-7.099c-11.393,11.475-24.752,18.461-24.752,18.461c26.46-5.064,44.202-35.695,46.019-38.949
					c2.242,3.31,6.529,10.356,6.89,16.306c0.491,8.086-2.292,23.787,2.339,24.382
					C1133.963,959.739,1149.559,938.683,1141.906,922.671z"/>
				<path style="fill:#233862;" d="M992.96,1711.252h-75.383c0,0-1.807-11.489,2.131-20.204c3.772-8.365,9.682-12.165,8.267-22.285
					c4.791,4.932,12.597,10.455,23.496,8.989c1.335,2.164,8.62,13.751,13.08,16.955
					C969.476,1698.246,991.443,1696.985,992.96,1711.252z"/>
				<path style="fill:#233862;" d="M1154.818,1711.252h-75.384c0,0-2.818-12.023,2.131-20.204c4.381-7.24,2.703-11.363-0.542-17.352
					c3.415,1.398,7.833,2.67,12.697,2.391c3.755-0.216,7.727-1.921,11.21-3.943c3.244,3.698,17.137,19.443,21.478,22.563
					C1131.334,1698.246,1153.301,1696.985,1154.818,1711.252z"/>
			</g>
			<polygon style="fill:#F99746;" points="1257.358,1054.626 1372.097,1054.626 1365.722,1010.128 1263.277,1014.244 			"/>
			<path style="fill:#FFB27D;" d="M1277.506,969.53c-5.35,5.33-5.223,22.409-16.505,30.448
				c-12.142,8.651-17.006,17.534-21.311,21.97c-1.593,1.822-2.573,2.824-2.573,2.824l-12.959-15.076c0,0,0.212-0.138,0.596-0.569
				c2.899-3.158,10.254-10.952,15.151-19.924c10.738-19.672,25.753-22.575,25.753-22.575S1273.294,966.32,1277.506,969.53z"/>
			<path style="fill:#253D78;" d="M1232.088,997.853l19.123,21.4c0,0-51.103,44.486-61.77,53.728
				c-7.586,6.451-14.738,11.713-20.573,14.726c-0.579,0.317-1.102,0.535-1.78,0.795c-15.004,6.568-47.396,5.837-79.771,1.047
				c-4.475-0.652-8.892-1.403-13.212-2.095c-15.96-2.787-31.149-6.436-43.664-10.618c-7.504-2.427-14.137-5-19.236-7.726
				c-1.816-0.932-3.534-1.807-5.042-2.822c-25.316-15.164-24.091-29.253-23.61-34.312c0.481-5.059,4.123-11.737,12.576-14.479
				c20.087-6.517,87.48,19.457,97.407,21.334c5.957,1.259,21.46,6.749,26.676,7.706c9.984,1.78,18.232,2.937,23.867,2.956
				c3.652,0.039,10.099-2.224,17.891-5.665C1174.563,1037.877,1232.088,997.853,1232.088,997.853z"/>
			<path style="fill:#FFB27D;" d="M1239.601,1062.393c-1.594-2.618-1.749-6.857-1.749-6.857c2.204-5.664,7.099-12.039,8.92-13.291
				c1.821-1.252,4.212-4.326,4.781-2.277c0.569,2.049-2.163,12.749-5.35,16.96
				C1243.016,1061.141,1239.601,1062.393,1239.601,1062.393z"/>
		</g>
		<g>
			<path style="fill:#ED7D2B;" d="M2376.301,805.662c16.084,27.994,36.314,38.8,36.314,38.8h84.162
				C2496.777,844.462,2364.031,784.307,2376.301,805.662z"/>
			<g>
				<path style="fill:#FFB27D;" d="M2435.94,1023.707c2.193,2.514,4.085,2.376,3,5.375c-0.001,0.013-0.487,1.488-0.5,1.5
					c-2.008,5.547-5.796,9.44-13.5,15.625c-0.984,0.795-1.987,1.456-2.75,2.125c-0.2,0.176-1.562,0.448-1.75,0.625
					c-0.155,0.136-1.352,2.609-1.5,2.739c-7.184,6.622-5.72,4.699-18.625,18.136c-14.715,15.311-14.285,13.728-17.167,12.333
					c-2.438-1.188-3.448-4.039,2.041-13.165c0.267-0.44,0.527-0.886,0.8-1.331c0.731-1.213,1.458-2.445,2.183-3.665
					c6.433-10.984,4.781-16.139,3.256-32.485c-1.239-13.284-20.666-74.214-20.666-74.214l28.199-4.857
					c0,0,8.493,48.518,17.849,55.99c5.003,3.982,10.604,4.032,15.413,6.984c0.34,0.205,0.674,0.416,1,0.632
					C2435.958,1017.865,2433.741,1021.188,2435.94,1023.707z"/>
				<path style="fill:#BC3F3F;" d="M2440.94,1022.255c2.193,2.514,2.473,5.322,1.387,8.321c-0.001,0.013-0.008,0.03-0.021,0.042
					c-2.458,5.541-8.923,11.704-16.37,17.87c-0.973,0.808-1.832,1.55-2.596,2.243c-0.2,0.176-0.4,0.352-0.589,0.528
					c-0.155,0.136-0.305,0.278-0.453,0.409c-7.184,6.622-4.48,8.139-17.385,21.575c-14.715,15.311-24.847,15.586-27.729,14.191
					c-2.438-1.188,2.516-9.309,8.004-18.435c2.865-1.05,16.171-6.455,26.231-19.328c8.861-11.307,14.77-25.835,20.803-34.25
					c0.34,0.205,0.674,0.416,1,0.632C2435.958,1017.865,2438.741,1019.735,2440.94,1022.255z"/>
				<path style="fill:#FFB27D;" d="M2208.315,1002.957c-1.741,8.704-7.387,6.262-21.25,2.875
					c-13.862-3.388-10.646-0.066-30.375-2.25c-19.729-2.184-21.523-5.316-22.125-8.25c-0.539-2.603,3.584-4.363,14.041-5.568
					c1.315-0.148,2.636-0.311,3.957-0.473c11.806-1.481,20.451-9.1,31.174-15.355c10.158-5.926,25.315-30.07,25.315-30.07
					l27.057,2.143c0,0-14.198,21.565-19.69,30.941c-3.23,5.515-3.059,12.807-2.656,18.438
					C2213.973,998.448,2208.933,999.892,2208.315,1002.957z"/>
				<path style="fill:#BC3F3F;" d="M2185.544,1008.508c-13.862-3.388-10.567,0.639-30.296-1.545
					c-19.729-2.184-25.706-9.54-26.308-12.474c-0.539-2.603,9.21-3.521,19.666-4.726l0.098,0.201c0,0,11.832,8.389,28.254,8.782
					c13.385,0.325,27.562-3.51,36.806-3.36c0.209,3.062,0.409,6.19-0.208,9.256
					C2211.814,1013.347,2199.407,1011.895,2185.544,1008.508z"/>
				<path style="fill:#ED7D2B;" d="M2317.243,831.637l25.293,68.06l33.021,88.867c0,0,8.961,0.865,17.542-1.603
					c7.901-2.284,16.966-8.259,16.966-8.259s-9.169-95.418-26.274-150.191c-4.383-14.06-9.296-25.432-14.717-31.833
					C2342.56,765.341,2317.243,831.637,2317.243,831.637z"/>
				<path style="fill:#F99746;" d="M2342.959,723.547c16.57-5.345,63.831,1.518,111.306,10.811l9.94-16.396l102.545-8.008
					c0,0,33.782,75.018,15.313,122.853c-4.498,11.65-19.182,11.645-19.186,11.65c0,0-60.7-0.002-80.518-0.002
					c-50.997,0-107.927-35.056-115.292-36.528c-12.054-2.411-16.876,21.698-28.931,47.012
					c-12.054,25.315-113.311,112.107-113.311,112.107s-15.563,0.154-21.991-2.257c-6.914-2.593-9.443-5.961-9.443-5.961
					S2305.591,735.602,2342.959,723.547z"/>
				<path style="fill:#233862;" d="M2464.809,576.744c36.516,20.107,110.594,61.787,110.979,61.518c0,0,27.228,10.26,42.675,0.001
					c25.745-17.098,39.552-63.114-7.531-102.714c-23.482-19.75-40.165-24.559-42.7-56.094c-1.375-17.109-24.762-73.573-63.62-68.352
					c-3.248,0.436-6.52,0.749-9.794,0.644c-4.538-0.147-12.03,0.516-19.717,5.092
					C2453.108,429.932,2410.066,568.962,2464.809,576.744z"/>
				<path style="fill:#FFB27D;" d="M2495.415,559.63c-0.161,0.104,17.966,6.293,30.087,0.925c11.403-5.039,20.041-23.8,19.872-23.81
					c-5.188-0.24-10.882-4.774-15.268-34.532l-2.209,0.793l-37.138,13.363c0,0,2.691,11.917,4.431,23.262
					C2496.656,549.157,2497.443,558.283,2495.415,559.63z"/>
				<path style="fill:#ED975D;" d="M2490.759,516.369c0,0,2.691,11.917,4.431,23.262c21.332-3.839,29.704-25.092,32.707-36.625
					L2490.759,516.369z"/>
				<path style="fill:#FFB27D;" d="M2485.229,528.198c0,0,50.812-6.82,46.078-38.398c-4.734-31.578-1.364-53.725-34.007-50.706
					c-32.643,3.02-37.125,16.012-38.108,26.936C2458.208,476.953,2471.889,529.157,2485.229,528.198z"/>
				<path style="fill:#233862;" d="M2461.043,448.72c0,0,32.528,28.031,54.653,30.291c22.125,2.26,30.501-4.842,30.501-4.842
					s-13.042-10.828-20.889-28.303c-2.313-5.151-7.2-8.685-12.825-9.17C2496.684,435.332,2466.735,434.71,2461.043,448.72z"/>
				<path style="fill:#233862;" d="M2481.376,446.21c0,0-10.882,10.521-14.309,18.325c-3.307,7.531-4.299,25.541-1.665,32.696
					c0,0-16.955-32.967-7.356-48.984C2468.226,431.262,2481.376,446.21,2481.376,446.21z"/>
				<path style="fill:#BC3F3F;" d="M2452.628,634.482c1.536,102.856,0.422,81.363,11.673,91.123
					c2.711,2.35,10.333,3.751,20.363,4.413c31.539,2.094,86.981-3.103,89.09-8.932c7.275-20.168,2.139-26.434,8.208-57.31
					c0.633-3.283,1.416-6.838,2.335-10.709c5.061-21.207,9.986-28.421-7.968-62.491c-16.282-30.861-33.196-55.909-34.717-55.005
					c-42.956,25.499-46.42,4.066-46.42,4.066S2451.875,584.311,2452.628,634.482z"/>
				<path style="fill:#F99746;" d="M2342.537,899.696l33.021,88.867c0,0,8.961,0.865,17.542-1.603
					c7.901-2.284,16.966-8.259,16.966-8.259s-9.169-95.418-26.274-150.191L2342.537,899.696z"/>
				<path style="fill:#BC3F3F;" d="M2495.19,539.631c0,0-44.2,7.494-49.39,26.525c-5.19,19.03-35.734,130.907-35.734,130.907
					s22.47,4.037,32.85-6.344c10.38-10.38,36.12-96.307,36.12-96.307L2495.19,539.631z"/>
				<path style="fill:#992525;" d="M2484.665,730.018c31.539,2.094,86.981-3.103,89.09-8.932c7.275-20.168,2.139-26.434,8.208-57.31
					l-15.212-42.836c0,0,2.515,47.701-11.552,60.247c-14.053,12.547-57.596,24.219-64.434,34.702
					C2487.466,720.92,2485.297,725.966,2484.665,730.018z"/>
				<path style="fill:#FFB27D;" d="M2520.801,709.955c0,0-31.116-6.928-36.136-4.167c-5.021,2.762-17.291,12.817-18.827,16.317
					c-1.536,3.499,11.178-2.656,15.313-3.766c2.678-0.719,9.728,1.731,13.218,2.895c14.685,4.894,23.684,2.377,23.684,2.377
					L2520.801,709.955z"/>
				<path style="fill:#BC3F3F;" d="M2541.639,535.549c0,0,41.78,2.573,56.243,22.746c20.359,28.396,60.748,149.414,37.601,165.555
					c-26.067,18.176-118.637,4.755-118.637,4.755s-3.081-14.399,1.206-21.364c4.286-6.965,73.937-18.217,77.152-21.432
					c3.214-3.214-40.183-62.686-40.183-72.329S2541.639,535.549,2541.639,535.549z"/>
				<path style="fill:#FFB27D;" d="M2483.158,714.449c0,0-6.52,8.409-8.657,9.413s-3.518,0.753-3.518,0.753l4.393-7.907
					L2483.158,714.449z"/>
				<path style="fill:#FFB27D;" d="M2484.665,705.788l-18.955,9.205c0,0,0.806,1.319,3.14,1.213
					c2.334-0.106,8.221-2.259,8.221-2.259L2484.665,705.788z"/>
			</g>
			<g>
				<g>
					<polygon style="fill:#163560;" points="2474.501,736.745 2324.561,736.745 2279.456,624.582 2429.166,624.582 					"/>
					<polygon style="fill:#11294A;" points="2322.803,732.375 2520.801,732.375 2520.801,736.745 2324.561,736.745 					"/>
				</g>
				<path style="fill:#FFFFFF;" d="M2362.411,680.663c-1.131-3.942,1.149-7.139,5.092-7.139s8.056,3.196,9.186,7.139
					c1.131,3.943-1.149,7.14-5.092,7.14S2363.542,684.607,2362.411,680.663z"/>
			</g>
		</g>
	</g>
	<path style="fill:#2E3552;" d="M3072.203,1715.777H198.827c-2.101,0-3.819-1.719-3.819-3.819l0,0c0-2.101,1.719-3.819,3.819-3.819
		h2873.376c2.101,0,3.819,1.719,3.819,3.819l0,0C3076.022,1714.059,3074.303,1715.777,3072.203,1715.777z"/>
</g>
</svg>
